<?xml version="1.0" encoding="UTF-8"?><svg id="a" xmlns="http://www.w3.org/2000/svg" viewBox="0 0 110 24"><defs><style>.b{stroke-width:0px;}</style></defs><path class="b" d="m1.61,11.31c0-2.48,1.92-4.32,4.52-4.32s4.52,1.82,4.52,4.32-1.92,4.32-4.52,4.32-4.52-1.83-4.52-4.32Zm7.47,0c0-1.71-1.26-2.95-2.95-2.95s-2.95,1.24-2.95,2.95,1.26,2.95,2.95,2.95,2.95-1.24,2.95-2.95Z"/><path class="b" d="m18.97,12.31c0,1.99-1.38,3.29-3.25,3.29-.82,0-1.54-.28-2.05-.86v3.11h-1.5v-8.73h1.43v.84c.5-.61,1.25-.91,2.12-.91,1.87,0,3.25,1.3,3.25,3.27Zm-1.52,0c0-1.22-.82-2-1.9-2s-1.91.78-1.91,2,.83,2,1.91,2,1.9-.78,1.9-2Z"/><path class="b" d="m26.4,12.79h-5.02c.18.94.96,1.54,2.07,1.54.72,0,1.28-.23,1.74-.7l.8.92c-.58.68-1.48,1.04-2.58,1.04-2.15,0-3.54-1.38-3.54-3.29s1.4-3.27,3.31-3.27,3.24,1.31,3.24,3.31c0,.12-.01.3-.02.44Zm-5.04-1h3.63c-.12-.92-.83-1.56-1.81-1.56s-1.68.62-1.82,1.56Z"/><path class="b" d="m34.18,11.84v3.67h-1.5v-3.48c0-1.14-.56-1.69-1.52-1.69-1.07,0-1.79.65-1.79,1.93v3.24h-1.5v-6.4h1.43v.83c.49-.59,1.27-.9,2.21-.9,1.54,0,2.67.88,2.67,2.81Z"/><path class="b" d="m46.57,10.1c0,1.85-1.37,2.99-3.57,2.99h-1.89v2.42h-1.56V7.11h3.45c2.21,0,3.57,1.13,3.57,2.99Zm-1.57,0c0-1.05-.71-1.67-2.07-1.67h-1.82v3.33h1.82c1.37,0,2.07-.61,2.07-1.67Z"/><path class="b" d="m51.64,9.03v1.43c-.13-.02-.24-.04-.35-.04-1.14,0-1.86.67-1.86,1.98v3.11h-1.5v-6.4h1.43v.94c.43-.67,1.21-1.01,2.28-1.01Z"/><path class="b" d="m58.24,11.76v3.75h-1.41v-.78c-.36.55-1.06.86-2.02.86-1.46,0-2.39-.8-2.39-1.92s.72-1.91,2.66-1.91h1.66v-.1c0-.88-.53-1.39-1.6-1.39-.72,0-1.46.24-1.94.64l-.59-1.09c.68-.53,1.68-.79,2.71-.79,1.85,0,2.91.88,2.91,2.72Zm-1.5,1.75v-.74h-1.55c-1.02,0-1.29.38-1.29.85,0,.54.46.89,1.22.89s1.37-.34,1.62-1Z"/><path class="b" d="m66.04,9.11l-3,6.92c-.59,1.45-1.4,1.9-2.47,1.9-.63,0-1.31-.22-1.71-.59l.6-1.1c.29.28.7.44,1.1.44.53,0,.84-.25,1.13-.89l.11-.25-2.79-6.43h1.56l2.02,4.74,2.03-4.74h1.44Z"/><path class="b" d="m72.79,12.79h-5.03c.18.94.96,1.54,2.07,1.54.72,0,1.28-.23,1.74-.7l.8.92c-.58.68-1.47,1.04-2.58,1.04-2.15,0-3.54-1.38-3.54-3.29s1.4-3.27,3.31-3.27,3.24,1.31,3.24,3.31c0,.12-.01.3-.02.44Zm-5.04-1h3.63c-.12-.92-.83-1.56-1.81-1.56s-1.68.62-1.82,1.56Z"/><path class="b" d="m77.96,9.03v1.43c-.13-.02-.24-.04-.35-.04-1.14,0-1.86.67-1.86,1.98v3.11h-1.5v-6.4h1.43v.94c.43-.67,1.21-1.01,2.28-1.01Z"/><path class="b" d="m95.02,7.11l-2.78,8.4h-1.66l-2.07-6.21-2.11,6.21h-1.67l-2.78-8.4h1.62l2.09,6.38,2.17-6.38h1.44l2.12,6.42,2.15-6.42h1.49Z"/><path class="b" d="m101.04,11.76v3.75h-1.42v-.78c-.36.55-1.05.86-2.02.86-1.46,0-2.39-.8-2.39-1.92s.72-1.91,2.66-1.91h1.65v-.1c0-.88-.53-1.39-1.6-1.39-.72,0-1.46.24-1.94.64l-.59-1.09c.68-.53,1.68-.79,2.71-.79,1.85,0,2.92.88,2.92,2.72Zm-1.5,1.75v-.74h-1.55c-1.02,0-1.29.38-1.29.85,0,.54.46.89,1.22.89s1.37-.34,1.62-1Z"/><path class="b" d="m102.96,6.61h1.5v8.9h-1.5V6.61Z"/><path class="b" d="m106.43,6.61h1.5v8.9h-1.5V6.61Z"/></svg>