<?xml version="1.0" encoding="UTF-8"?><svg id="a" xmlns="http://www.w3.org/2000/svg" viewBox="0 0 48 48"><defs><style>.b{stroke-width:0px;}</style></defs><path class="b" d="m32,32v-6.2l-3.4-6.4c-1.13.37-2.02,1.05-2.65,2.05-.63,1-.95,2.1-.95,3.3v13.2l3.8,6.05h15.2l-2-24.75L28.1,3.05c-1.17,1.17-1.88,2.53-2.15,4.1s-.02,3.07.75,4.5l7.3,13.55v6.8h-2Zm-18,0v-6.8l7.3-13.55c.77-1.4,1.01-2.89.73-4.48s-.99-2.96-2.13-4.13L6,19.25l-2,24.75h15.2l3.8-6.05v-13.2c0-1.2-.32-2.3-.95-3.3s-1.52-1.68-2.65-2.05l-3.4,6.4v6.2h-2Z"/></svg>