<?xml version="1.0" encoding="UTF-8"?><svg id="a" xmlns="http://www.w3.org/2000/svg" viewBox="0 0 512 512"><defs><style>.b{stroke-width:0px;}</style></defs><path class="b" d="m356,362v-77.5l-42.5-80c-14.12,4.63-25.25,13.12-33.12,25.62s-11.88,26.25-11.88,41.25v165l47.5,75.62h190l-25-309.38L307.25.12c-14.63,14.62-23.5,31.62-26.87,51.25s-.25,38.37,9.38,56.25l91.25,169.38v85h-25Zm-225,0v-85l91.25-169.38c9.63-17.5,12.63-36.13,9.12-56S219,14.63,204.75,0L31,202.62,6,512h190l47.5-75.62v-165c0-15-4-28.75-11.88-41.25s-19-21-33.12-25.62l-42.5,80v77.5h-25Z"/></svg>